<svg width="40" height="40" viewBox="0 0 40 40" fill="none" xmlns="http://www.w3.org/2000/svg">
<path d="M11.1719 25.2344C14.2448 23.9844 17.1875 23.3594 20 23.3594C22.8125 23.3594 25.7292 23.9844 28.75 25.2344C31.8229 26.4323 33.3594 28.0208 33.3594 30V33.3594H6.64062V30C6.64062 28.0208 8.15104 26.4323 11.1719 25.2344ZM24.6875 18.0469C23.3854 19.349 21.8229 20 20 20C18.1771 20 16.6146 19.349 15.3125 18.0469C14.0104 16.7448 13.3594 15.1823 13.3594 13.3594C13.3594 11.5365 14.0104 9.97396 15.3125 8.67187C16.6146 7.31771 18.1771 6.64062 20 6.64062C21.8229 6.64062 23.3854 7.31771 24.6875 8.67187C25.9896 9.97396 26.6406 11.5365 26.6406 13.3594C26.6406 15.1823 25.9896 16.7448 24.6875 18.0469Z" fill="#666666"/>
</svg>
