<svg width="40" height="40" viewBox="0 0 40 40" fill="none" xmlns="http://www.w3.org/2000/svg">
<path d="M28.3594 28.3594V21.6406H25V28.3594H28.3594ZM21.6406 28.3594V11.6406H18.3594V28.3594H21.6406ZM15 28.3594V16.6406H11.6406V28.3594H15ZM31.6406 5C32.526 5 33.3073 5.33854 33.9844 6.01562C34.6615 6.69271 35 7.47396 35 8.35937V31.6406C35 32.526 34.6615 33.3073 33.9844 33.9844C33.3073 34.6615 32.526 35 31.6406 35H8.35937C7.47396 35 6.69271 34.6615 6.01562 33.9844C5.33854 33.3073 5 32.526 5 31.6406V8.35937C5 7.47396 5.33854 6.69271 6.01562 6.01562C6.69271 5.33854 7.47396 5 8.35937 5H31.6406Z" fill="#666666"/>
</svg>
